<svg xmlns="http://www.w3.org/2000/svg" viewBox="0 0 512 512"><linearGradient id="prefix__a" gradientUnits="userSpaceOnUse" x1="256" y1="2" x2="256" y2="514" gradientTransform="matrix(1 0 0 -1 0 514)"><stop offset="0" stop-color="#F6F6FF"/><stop offset=".997" stop-color="#E8F9FF"/></linearGradient><circle cx="256" cy="256" r="256" fill="url(#prefix__a)"/><g><linearGradient id="prefix__b" gradientUnits="userSpaceOnUse" x1="256" y1="409" x2="256" y2="106.999" gradientTransform="matrix(1 0 0 -1 0 514)"><stop offset="0" stop-color="#00b59c"/><stop offset="1" stop-color="#9cffac"/></linearGradient><path d="M188.6 140.5l20.4-20.4c3.5-3.5 3.5-9.1 0-12.6s-9.1-3.5-12.6 0L161 143c-1.7 1.6-2.7 3.9-2.7 6.4V256c0 5 3.9 8.9 8.9 8.9h79.9V140.5h-58.5zM351 143l-35.4-35.4c-3.5-3.5-9.1-3.5-12.6 0s-3.5 9.1 0 12.6l20.4 20.4h-58.5V265h79.9c5 0 8.9-3.9 8.9-8.9V149.4c0-2.5-1.1-4.8-2.7-6.4zm-86.1-11.4c0-5-3.9-8.9-8.9-8.9s-8.9 3.9-8.9 8.9v8.9h17.8v-8.9zm-17.8 209.5l-50.7 50.7c-3.5 3.5-3.5 9.1 0 12.6s9.1 3.5 12.6 0l38.1-38.1v31.9c0 5 3.9 8.9 8.9 8.9s8.9-3.9 8.9-8.9v-31.9l38.1 38.1c3.5 3.5 9.1 3.5 12.6 0s3.5-9.1 0-12.6l-50.7-50.7v-76.3h-17.8v76.3z" fill="url(#prefix__b)"/></g></svg>